<?xml version="1.0" encoding="UTF-8"?>
<!DOCTYPE svg PUBLIC "-//W3C//DTD SVG 1.1//EN" "http://www.w3.org/Graphics/SVG/1.1/DTD/svg11.dtd">
<!-- Creator: CorelDRAW 2020 (64 Bit) -->
<svg xmlns="http://www.w3.org/2000/svg" xml:space="preserve" width="284px" height="291px" version="1.1" style="shape-rendering:geometricPrecision; text-rendering:geometricPrecision; image-rendering:optimizeQuality; fill-rule:evenodd; clip-rule:evenodd"
viewBox="0 0 43.7 44.68"
 xmlns:xlink="http://www.w3.org/1999/xlink"
 xmlns:xodm="http://www.corel.com/coreldraw/odm/2003">
 <defs>
  <style type="text/css">
   <![CDATA[
    .str0 {stroke:#373435;stroke-width:3.63;stroke-miterlimit:22.9256}
    .fil2 {fill:none}
    .fil0 {fill:#090A07}
    .fil1 {fill:#FEFEFE;fill-rule:nonzero}
   ]]>
  </style>
 </defs>
 <g id="Camada_x0020_1">
  <metadata id="CorelCorpID_0Corel-Layer"/>
  <g id="_2200952461904">
   <path class="fil0" d="M11.49 7.72c-0.76,1.24 -0.74,26.66 -0.43,29.77 0.31,3.12 3.01,1.19 4.37,0.39 1.67,-0.98 2.91,-1.68 4.67,-2.71 3.07,-1.81 6.18,-3.41 9.36,-5.4 9.08,-5.66 13.3,-5.52 6.02,-9.57l-18.94 -10.89c-1.5,-0.88 -3.25,-2.58 -5.05,-1.59z"/>
   <path class="fil1" d="M12.81 27.66l0 -1.13 0.23 0 0.26 0.8c0.03,0.07 0.05,0.13 0.06,0.16 0.01,-0.04 0.03,-0.1 0.06,-0.18l0.27 -0.78 0.2 0 0 1.13 -0.15 0 0 -0.95 -0.32 0.95 -0.14 0 -0.32 -0.96 0 0.96 -0.15 0zm1.86 -0.27l0.14 0.02c-0.02,0.08 -0.06,0.15 -0.12,0.19 -0.07,0.05 -0.14,0.07 -0.24,0.07 -0.12,0 -0.21,-0.03 -0.28,-0.11 -0.07,-0.07 -0.11,-0.17 -0.11,-0.31 0,-0.13 0.04,-0.24 0.11,-0.31 0.07,-0.08 0.16,-0.12 0.27,-0.12 0.11,0 0.2,0.04 0.27,0.11 0.07,0.08 0.11,0.18 0.11,0.32 0,0 -0.01,0.02 -0.01,0.03l-0.6 0c0,0.09 0.03,0.16 0.07,0.21 0.05,0.05 0.1,0.07 0.17,0.07 0.05,0 0.1,-0.01 0.13,-0.04 0.04,-0.03 0.07,-0.07 0.09,-0.13zm-0.46 -0.22l0.46 0c-0.01,-0.07 -0.02,-0.12 -0.05,-0.15 -0.05,-0.06 -0.1,-0.08 -0.17,-0.08 -0.07,0 -0.12,0.02 -0.16,0.06 -0.05,0.04 -0.07,0.1 -0.08,0.17zm0.78 0.49l0 -0.82 0.12 0 0 0.12c0.06,-0.09 0.15,-0.14 0.26,-0.14 0.05,0 0.09,0.01 0.13,0.03 0.05,0.02 0.08,0.04 0.1,0.07 0.02,0.03 0.03,0.06 0.04,0.1 0.01,0.03 0.01,0.07 0.01,0.13l0 0.51 -0.14 0 0 -0.5c0,-0.06 -0.01,-0.1 -0.02,-0.13 -0.01,-0.02 -0.03,-0.05 -0.05,-0.06 -0.03,-0.02 -0.06,-0.03 -0.1,-0.03 -0.06,0 -0.11,0.02 -0.15,0.06 -0.04,0.03 -0.07,0.11 -0.07,0.21l0 0.45 -0.13 0zm1.4 0l0 -0.11c-0.05,0.08 -0.13,0.12 -0.23,0.12 -0.06,0 -0.12,-0.01 -0.18,-0.05 -0.05,-0.04 -0.1,-0.09 -0.13,-0.15 -0.03,-0.06 -0.04,-0.14 -0.04,-0.22 0,-0.08 0.01,-0.16 0.04,-0.22 0.03,-0.07 0.07,-0.12 0.12,-0.16 0.06,-0.03 0.12,-0.05 0.18,-0.05 0.05,0 0.1,0.01 0.14,0.03 0.03,0.02 0.06,0.05 0.09,0.08l0 -0.4 0.14 0 0 1.13 -0.13 0zm-0.44 -0.41c0,0.1 0.02,0.18 0.07,0.23 0.04,0.05 0.09,0.08 0.15,0.08 0.06,0 0.12,-0.02 0.16,-0.07 0.04,-0.05 0.06,-0.13 0.06,-0.23 0,-0.11 -0.02,-0.19 -0.06,-0.24 -0.05,-0.06 -0.1,-0.08 -0.16,-0.08 -0.06,0 -0.12,0.02 -0.16,0.07 -0.04,0.05 -0.06,0.13 -0.06,0.24zm1.32 0.41l0 -0.13c-0.06,0.1 -0.15,0.14 -0.26,0.14 -0.05,0 -0.09,-0.01 -0.13,-0.02 -0.04,-0.02 -0.08,-0.05 -0.1,-0.07 -0.02,-0.03 -0.03,-0.07 -0.04,-0.11 0,-0.02 -0.01,-0.07 -0.01,-0.13l0 -0.5 0.14 0 0 0.45c0,0.07 0,0.12 0.01,0.15 0.01,0.03 0.03,0.06 0.06,0.08 0.02,0.02 0.06,0.03 0.1,0.03 0.04,0 0.08,-0.01 0.12,-0.03 0.03,-0.02 0.06,-0.05 0.07,-0.08 0.02,-0.04 0.03,-0.09 0.03,-0.16l0 -0.44 0.13 0 0 0.82 -0.12 0zm0.34 -0.97l0 -0.16 0.14 0 0 0.16 -0.14 0zm0 0.97l0 -0.82 0.14 0 0 0.82 -0.14 0zm0.35 0l0 -0.82 0.13 0 0 0.12c0.06,-0.09 0.14,-0.14 0.26,-0.14 0.05,0 0.09,0.01 0.13,0.03 0.04,0.02 0.07,0.04 0.09,0.07 0.02,0.03 0.04,0.06 0.05,0.1 0,0.03 0,0.07 0,0.13l0 0.51 -0.13 0 0 -0.5c0,-0.06 -0.01,-0.1 -0.02,-0.13 -0.01,-0.02 -0.03,-0.05 -0.06,-0.06 -0.02,-0.02 -0.06,-0.03 -0.09,-0.03 -0.06,0 -0.11,0.02 -0.16,0.06 -0.04,0.03 -0.06,0.11 -0.06,0.21l0 0.45 -0.14 0zm1.28 -0.37l0.14 -0.01c0.01,0.06 0.03,0.1 0.05,0.14 0.02,0.04 0.06,0.07 0.11,0.09 0.05,0.02 0.11,0.03 0.18,0.03 0.05,0 0.1,-0.01 0.15,-0.02 0.04,-0.02 0.07,-0.04 0.09,-0.07 0.03,-0.03 0.04,-0.06 0.04,-0.1 0,-0.03 -0.01,-0.06 -0.03,-0.09 -0.03,-0.03 -0.06,-0.05 -0.11,-0.07 -0.03,-0.01 -0.09,-0.03 -0.2,-0.05 -0.1,-0.03 -0.17,-0.05 -0.21,-0.07 -0.06,-0.03 -0.1,-0.07 -0.12,-0.11 -0.03,-0.04 -0.04,-0.09 -0.04,-0.14 0,-0.06 0.01,-0.11 0.04,-0.16 0.04,-0.05 0.08,-0.09 0.15,-0.11 0.06,-0.03 0.13,-0.04 0.2,-0.04 0.09,0 0.16,0.01 0.22,0.04 0.07,0.03 0.12,0.07 0.15,0.12 0.04,0.05 0.05,0.11 0.06,0.18l-0.15 0.01c0,-0.07 -0.03,-0.13 -0.08,-0.16 -0.04,-0.04 -0.11,-0.06 -0.19,-0.06 -0.09,0 -0.16,0.02 -0.2,0.05 -0.04,0.04 -0.06,0.07 -0.06,0.12 0,0.04 0.01,0.08 0.04,0.1 0.03,0.03 0.11,0.05 0.23,0.08 0.12,0.03 0.2,0.05 0.25,0.07 0.06,0.03 0.11,0.07 0.14,0.12 0.03,0.04 0.05,0.1 0.05,0.16 0,0.06 -0.02,0.11 -0.05,0.17 -0.04,0.05 -0.09,0.09 -0.15,0.12 -0.06,0.03 -0.14,0.05 -0.22,0.05 -0.1,0 -0.18,-0.02 -0.25,-0.05 -0.07,-0.03 -0.13,-0.07 -0.16,-0.13 -0.04,-0.06 -0.06,-0.13 -0.07,-0.21zm1.39 0.24l0.01 0.13c-0.03,0 -0.07,0.01 -0.1,0.01 -0.05,0 -0.09,-0.01 -0.12,-0.03 -0.02,-0.01 -0.04,-0.03 -0.05,-0.06 -0.02,-0.03 -0.02,-0.08 -0.02,-0.16l0 -0.47 -0.1 0 0 -0.11 0.1 0 0 -0.2 0.14 -0.09 0 0.29 0.14 0 0 0.11 -0.14 0 0 0.47c0,0.04 0,0.07 0,0.08 0.01,0.01 0.02,0.02 0.03,0.03 0.01,0 0.02,0.01 0.05,0.01 0.01,0 0.03,0 0.06,-0.01zm0.67 0.13l0 -0.13c-0.07,0.1 -0.15,0.14 -0.26,0.14 -0.05,0 -0.1,-0.01 -0.14,-0.02 -0.04,-0.02 -0.07,-0.05 -0.09,-0.07 -0.02,-0.03 -0.03,-0.07 -0.04,-0.11 -0.01,-0.02 -0.01,-0.07 -0.01,-0.13l0 -0.5 0.14 0 0 0.45c0,0.07 0,0.12 0.01,0.15 0,0.03 0.02,0.06 0.05,0.08 0.03,0.02 0.06,0.03 0.11,0.03 0.04,0 0.08,-0.01 0.11,-0.03 0.04,-0.02 0.06,-0.05 0.08,-0.08 0.01,-0.04 0.02,-0.09 0.02,-0.16l0 -0.44 0.14 0 0 0.82 -0.12 0zm0.87 0l0 -0.11c-0.06,0.08 -0.13,0.12 -0.23,0.12 -0.07,0 -0.13,-0.01 -0.18,-0.05 -0.06,-0.04 -0.1,-0.09 -0.13,-0.15 -0.03,-0.06 -0.04,-0.14 -0.04,-0.22 0,-0.08 0.01,-0.16 0.04,-0.22 0.02,-0.07 0.06,-0.12 0.12,-0.16 0.05,-0.03 0.11,-0.05 0.18,-0.05 0.05,0 0.09,0.01 0.13,0.03 0.04,0.02 0.07,0.05 0.1,0.08l0 -0.4 0.13 0 0 1.13 -0.12 0zm-0.44 -0.41c0,0.1 0.02,0.18 0.06,0.23 0.05,0.05 0.1,0.08 0.16,0.08 0.06,0 0.11,-0.02 0.15,-0.07 0.05,-0.05 0.07,-0.13 0.07,-0.23 0,-0.11 -0.02,-0.19 -0.07,-0.24 -0.04,-0.06 -0.09,-0.08 -0.16,-0.08 -0.06,0 -0.11,0.02 -0.15,0.07 -0.04,0.05 -0.06,0.13 -0.06,0.24zm0.78 -0.56l0 -0.16 0.14 0 0 0.16 -0.14 0zm0 0.97l0 -0.82 0.14 0 0 0.82 -0.14 0zm0.3 -0.41c0,-0.15 0.04,-0.26 0.13,-0.34 0.07,-0.06 0.15,-0.09 0.25,-0.09 0.12,0 0.21,0.04 0.28,0.11 0.07,0.08 0.11,0.18 0.11,0.31 0,0.1 -0.02,0.18 -0.05,0.24 -0.03,0.06 -0.08,0.11 -0.14,0.14 -0.06,0.04 -0.12,0.05 -0.2,0.05 -0.11,0 -0.2,-0.03 -0.27,-0.11 -0.07,-0.07 -0.11,-0.17 -0.11,-0.31zm0.14 0c0,0.1 0.03,0.18 0.07,0.23 0.05,0.05 0.1,0.08 0.17,0.08 0.07,0 0.13,-0.03 0.18,-0.08 0.04,-0.05 0.06,-0.13 0.06,-0.24 0,-0.1 -0.02,-0.17 -0.06,-0.23 -0.05,-0.05 -0.11,-0.07 -0.18,-0.07 -0.07,0 -0.12,0.02 -0.17,0.07 -0.04,0.06 -0.07,0.13 -0.07,0.24zm0.73 0.16l0.14 -0.02c0.01,0.06 0.03,0.1 0.06,0.13 0.04,0.03 0.09,0.04 0.15,0.04 0.07,0 0.11,-0.01 0.14,-0.04 0.03,-0.02 0.05,-0.05 0.05,-0.09 0,-0.03 -0.01,-0.06 -0.04,-0.07 -0.02,-0.02 -0.07,-0.03 -0.14,-0.05 -0.1,-0.03 -0.17,-0.05 -0.21,-0.07 -0.04,-0.02 -0.07,-0.04 -0.09,-0.07 -0.02,-0.04 -0.03,-0.07 -0.03,-0.11 0,-0.04 0.01,-0.07 0.02,-0.1 0.02,-0.04 0.04,-0.06 0.07,-0.08 0.02,-0.02 0.05,-0.03 0.09,-0.04 0.04,-0.01 0.07,-0.02 0.12,-0.02 0.06,0 0.12,0.01 0.17,0.03 0.04,0.02 0.08,0.04 0.1,0.07 0.03,0.04 0.04,0.08 0.05,0.13l-0.13 0.02c-0.01,-0.04 -0.03,-0.08 -0.06,-0.1 -0.03,-0.02 -0.07,-0.03 -0.12,-0.03 -0.07,0 -0.11,0.01 -0.14,0.03 -0.03,0.02 -0.04,0.04 -0.04,0.07 0,0.02 0.01,0.03 0.02,0.05 0.01,0.01 0.03,0.03 0.05,0.04 0.01,0 0.05,0.01 0.12,0.03 0.1,0.03 0.17,0.05 0.21,0.07 0.04,0.01 0.07,0.04 0.09,0.07 0.02,0.03 0.03,0.07 0.03,0.12 0,0.04 -0.01,0.09 -0.04,0.13 -0.03,0.04 -0.06,0.07 -0.11,0.09 -0.06,0.02 -0.11,0.03 -0.18,0.03 -0.1,0 -0.18,-0.02 -0.24,-0.06 -0.06,-0.05 -0.09,-0.11 -0.11,-0.2z"/>
   <path class="fil1" d="M26.84 25.53c0.13,0.97 1.42,1.34 2.27,1.34 0.72,0 1.25,-0.14 1.6,-0.44 0.34,-0.29 0.52,-0.63 0.52,-1.03 0,-0.35 -0.16,-0.63 -0.47,-0.83 -0.22,-0.14 -0.75,-0.31 -1.6,-0.53 -1.14,-0.28 -1.93,-0.53 -2.38,-0.74 -0.44,-0.22 -0.77,-0.51 -1,-0.88 -0.23,-0.37 -0.34,-0.78 -0.34,-1.23 0,-0.41 0.09,-0.79 0.28,-1.14 0.19,-0.35 0.44,-0.64 0.77,-0.87 0.24,-0.18 0.57,-0.33 0.99,-0.46 0.42,-0.12 0.86,-0.18 1.34,-0.18 0.73,0 1.36,0.1 1.91,0.31 0.54,0.21 0.95,0.49 1.21,0.85 0.25,0.36 0.43,0.83 0.53,1.43l-1.53 0.22c-0.06,-0.48 -0.27,-0.86 -0.6,-1.13 -0.33,-0.27 -0.8,-0.4 -1.4,-0.4 -0.72,0 -1.23,0.12 -1.53,0.35 -0.31,0.24 -0.46,0.52 -0.46,0.83 0,0.21 0.06,0.39 0.19,0.55 0.12,0.17 0.32,0.31 0.59,0.42 0.16,0.06 0.62,0.19 1.38,0.4 1.1,0.29 1.87,0.53 2.31,0.72 0.44,0.19 0.78,0.46 1.03,0.82 0.25,0.35 0.38,0.8 0.38,1.33 0,0.52 -0.15,1.01 -0.46,1.47 -0.6,0.9 -1.89,1.89 -3,1.89l-17.37 0 0 -0.76 15.14 0c-0.29,-0.12 -0.55,-0.26 -0.77,-0.43 -0.41,-0.33 -0.73,-0.63 -0.95,-1.07l-1.01 0.01 -10.3 0 -2.11 0c0,0 1.93,-6.43 2.53,-7.23 0.6,-0.8 1.67,-0.88 1.67,-0.88 2.41,-0.08 5.16,-0.04 6.58,-0.03 0.51,0.01 1.21,-0.07 1.68,0.13 0.17,0.07 0.34,0.18 0.49,0.32 0.4,0.38 -0.07,1.4 -0.07,1.4l-0.54 1.68 -1.31 3.09 -1.87 0 0.65 -1.86c0,0 0.61,-1.71 0.83,-2.61 0.07,-0.27 -0.05,-0.48 -0.17,-0.56 -0.5,-0.34 -1.84,-0.21 -1.84,-0.21l-1.73 5.22 -2.11 0 1.72 -5.21c-2.06,-0.36 -2.48,1.07 -2.48,1.07l-1.66 4.89 10.04 -0.02 2.43 -0.01z"/>
  </g>
  <ellipse class="fil2 str0" cx="21.85" cy="22.34" rx="20.04" ry="20.53"/>
 </g>
</svg>
